<?xml version="1.0" encoding="UTF-8"?>
<svg xmlns="http://www.w3.org/2000/svg" style="stroke-dasharray:none; shape-rendering:auto; font-family:'Arial'; text-rendering:auto; fill-opacity:1; color-interpolation:auto; color-rendering:auto; font-size:12; fill:black; stroke:black; image-rendering:auto; stroke-miterlimit:10; stroke-linecap:square; stroke-linejoin:miter; font-style:normal; stroke-width:1; stroke-dashoffset:0; font-weight:normal; stroke-opacity:1;" contentScriptType="text/ecmascript" preserveAspectRatio="xMidYMid meet" zoomAndPan="magnify" version="1.0" contentStyleType="text/css" xml:xlink="http://www.w3.org/1999/xlink" width="2551" height="1161"><rect x="30" y="0" width="2521" height="1161" ry="0" rx="0" style="stroke:#000000; fill:#FFFFFF" /><g componentSequence="26"><text x="-580" y="37" transform="rotate(270)" text-anchor="middle" style="font-weight:bold;font-size:10px;stroke:none; fill:#434343" /></g><g sequence="1"><ellipse cx="237" cy="237" rx="17" ry="17" stroke-width="1" style="fill:url(#linearGradient66FF6696FF96B6FFB6_1050126637);" stroke="336633" /></g><g sequence="2"><rect x="370" y="390" width="106" height="70" ry="5" rx="5" style="fill:url(#linearGradientF8FBFEEDF5FCDEEDFAD4E7F8E2E5E9_810565775);" stroke="191970" /></g><g componentSequence="2"><text x="423" y="405" text-anchor="middle" style="font-weight:bold;font-size:10px;stroke:none; fill:#333399"><tspan dy="14" x="423">Validação das</tspan><tspan dy="14" x="423">cotaçoes</tspan></text></g><g sequence="4"><polygon points=" 620 399 650 369 680 399 650 429 620 399" style="fill:url(#linearGradientFAFBFCFFFFCC_879739485);" stroke="000000" /></g><g componentSequence="4"><text x="650" y="439" text-anchor="middle" style="font-weight:bold;font-size:10px;stroke:none; fill:#333399"><tspan dy="14" x="650">Aprovaç</tspan><tspan dy="14" x="650">ão</tspan></text></g><g sequence="6"><rect x="597" y="620" width="106" height="56" ry="5" rx="5" style="fill:url(#linearGradientF8FBFEEDF5FCDEEDFAD4E7F8E2E5E9_1902987956);" stroke="191970" /></g><g componentSequence="6"><text x="650" y="637" text-anchor="middle" style="font-weight:bold;font-size:10px;stroke:none; fill:#333399"><tspan dy="14" x="650">Validação CFO</tspan></text></g><g sequence="8"><polygon points=" 830 627 860 597 890 627 860 657 830 627" style="fill:url(#linearGradientFAFBFCFFFFCC_1924160373);" stroke="000000" /></g><g componentSequence="8"><text x="860" y="667" text-anchor="middle" style="font-weight:bold;font-size:10px;stroke:none; fill:#333399"><tspan dy="14" x="860">Aprovac</tspan><tspan dy="14" x="860">ao</tspan></text></g><g sequence="10"><rect x="370" y="196" width="106" height="70" ry="5" rx="5" style="fill:url(#linearGradientF8FBFEEDF5FCDEEDFAD4E7F8E2E5E9_1079392660);" stroke="191970" /></g><g componentSequence="10"><text x="423" y="211" text-anchor="middle" style="font-weight:bold;font-size:10px;stroke:none; fill:#333399"><tspan dy="14" x="423">Aguardar SC</tspan><tspan dy="14" x="423">Aprovada</tspan></text></g><g sequence="13"><ellipse cx="1197" cy="419" rx="17" ry="17" stroke-width="3" style="fill:url(#linearGradientFF6666FF9696FFB6B6_174159593);" stroke="993333" /></g><g sequence="17"><ellipse cx="859" cy="747" rx="17" ry="17" stroke-width="1" style="fill:url(#linearGradientFFFF66FFFF96FFFFB6_289584635);" stroke="999900" /></g><g sequence="17"><polygon points=" 845 740 860 740 860 733 875 748 860 763 860 756 845 756" style="stroke:none; fill:#999900" /></g><g sequence="19"><ellipse cx="237" cy="307" rx="17" ry="17" stroke-width="1" style="fill:url(#linearGradientFFFF66FFFF96FFFFB6_1641627477);" stroke="999900" /></g><g sequence="19"><polygon points=" 223 300 238 300 238 293 253 308 238 323 238 316 223 316" style="stroke:#999900; fill:none" /></g><g sequence="22"><rect x="807" y="378" width="106" height="84" ry="5" rx="5" style="fill:url(#linearGradientF8FBFEEDF5FCDEEDFAD4E7F8E2E5E9_271724643);" stroke="191970" /></g><g componentSequence="22"><text x="860" y="393" text-anchor="middle" style="font-weight:bold;font-size:10px;stroke:none; fill:#333399"><tspan dy="14" x="860">Criação de</tspan><tspan dy="14" x="860">solicitacao de</tspan><tspan dy="14" x="860">viagem</tspan></text></g><g componentSequence="3"><text x="310" y="343" style="font-size:10px;font-weight:none;stroke:none; fill:#333399" text-anchor="left" /></g><g componentSequence="5"><text x="558" y="422" style="font-size:10px;font-weight:none;stroke:none; fill:#333399" text-anchor="left" /></g><g componentSequence="7"><text x="660" y="545" style="font-size:10px;font-weight:none;stroke:none; fill:#333399" text-anchor="left" /></g><g componentSequence="9"><text x="776" y="648" style="font-size:10px;font-weight:none;stroke:none; fill:#333399" text-anchor="left" /></g><g componentSequence="11"><text x="604" y="245" style="font-size:10px;font-weight:none;stroke:none; fill:#333399" text-anchor="left" /></g><g componentSequence="16"><text x="1159" y="648" style="font-size:10px;font-weight:none;stroke:none; fill:#333399" text-anchor="left" /></g><g componentSequence="18"><text x="869" y="714" style="font-size:10px;font-weight:none;stroke:none; fill:#333399" text-anchor="left" /></g><g componentSequence="20"><text x="247" y="272" style="font-size:10px;font-weight:none;stroke:none; fill:#333399" text-anchor="left" /></g><g componentSequence="21"><text x="970" y="230" style="font-size:10px;font-weight:none;stroke:none; fill:#333399" text-anchor="left" /></g><g componentSequence="23"><text x="870" y="529" style="font-size:10px;font-weight:none;stroke:none; fill:#333399" text-anchor="left" /></g><g componentSequence="24"><text x="1056" y="419" style="font-size:10px;font-weight:none;stroke:none; fill:#333399" text-anchor="left" /></g><g componentSequence="25"><text x="433" y="328" style="font-size:10px;font-weight:none;stroke:none; fill:#333399" text-anchor="left" /></g><path style="fill:none; stroke:#000000;stroke-width:1" d="M255.0 237.0 L300.0 237.0 L300.0 332.0 L300.0 424.0 L369.0 424.0" /><polygon style="fill:#000000; stroke:#000000;" points=" 359 419 369 424 359 429 361 424" /><path style="fill:none; stroke:#000000;stroke-width:1" d="M237.0 289.0 L237.0 255.0" /><polygon style="fill:#000000; stroke:#000000;" points=" 232 265 237 255 242 265 237 263" /><path style="fill:none; stroke:#000000;stroke-width:1" d="M476.0 423.0 L619.0 420.0" /><polygon style="fill:#000000; stroke:#000000;" points=" 609 415 619 420 609 425 611 420" /><path style="fill:none; stroke:#000000;stroke-width:1" d="M423.0 266.0 L423.0 389.0" /><polygon style="fill:#000000; stroke:#000000;" points=" 428 379 423 389 418 379 423 381" /><path style="fill:none; stroke:#000000;stroke-width:1" d="M650.0 471.0 L650.0 619.0" /><polygon style="fill:#000000; stroke:#000000;" points=" 655 609 650 619 645 609 650 611" /><path style="fill:none; stroke:#000000;stroke-width:1" d="M633.0 368.0 L590.0 231.0 L476.0 231.0" /><polygon style="fill:#000000; stroke:#000000;" points=" 486 236 476 231 486 226 484 231" /><path style="fill:none; stroke:#000000;stroke-width:1" d="M662.0 368.0 L694.0 230.0 L917.0 230.0 L1197.0 230.0 L1197.0 401.0" /><polygon style="fill:#000000; stroke:#000000;" points=" 1202 391 1197 401 1192 391 1197 393" /><path style="fill:none; stroke:#000000;stroke-width:1" d="M703.0 648.0 L829.0 648.0" /><polygon style="fill:#000000; stroke:#000000;" points=" 819 643 829 648 819 653 821 648" /><path style="fill:none; stroke:#000000;stroke-width:1" d="M890.0 648.0 L1197.0 648.0 L1197.0 437.0" /><polygon style="fill:#000000; stroke:#000000;" points=" 1192 447 1197 437 1202 447 1197 445" /><path style="fill:none; stroke:#000000;stroke-width:1" d="M859.0 699.0 L859.0 730.0" /><polygon style="fill:#000000; stroke:#000000;" points=" 864 720 859 730 854 720 859 722" /><path style="fill:none; stroke:#000000;stroke-width:1" d="M860.0 596.0 L860.0 462.0" /><polygon style="fill:#000000; stroke:#000000;" points=" 855 472 860 462 865 472 860 470" /><path style="fill:none; stroke:#000000;stroke-width:1" d="M913.0 419.0 L1180.0 419.0" /><polygon style="fill:#000000; stroke:#000000;" points=" 1170 414 1180 419 1170 424 1172 419" /><defs><linearGradient xmlns:xlink="http://www.w3.org/1999/xlink" xlink:href="#linearGradient66FF6696FF96B6FFB6" id="linearGradient66FF6696FF96B6FFB6_1050126637" x1="0" y1="220.0" x2="0" y2="255.0" gradientUnits="userSpaceOnUse" xlink:type="simple" xlink:actuate="onLoad" xlink:show="other" /><linearGradient id="linearGradient66FF6696FF96B6FFB6"><stop style="stop-color:#66FF66;stop-opacity:1;" offset="0.0" id="stop66FF66" /><stop style="stop-color:#96FF96;stop-opacity:1;" offset="0.5" id="stop96FF96" /><stop style="stop-color:#B6FFB6;stop-opacity:1;" offset="1.0" id="stopB6FFB6" /></linearGradient><linearGradient xmlns:xlink="http://www.w3.org/1999/xlink" xlink:href="#linearGradientF8FBFEEDF5FCDEEDFAD4E7F8E2E5E9" id="linearGradientF8FBFEEDF5FCDEEDFAD4E7F8E2E5E9_810565775" x1="0" y1="390.0" x2="0" y2="496.0" gradientUnits="userSpaceOnUse" xlink:type="simple" xlink:actuate="onLoad" xlink:show="other" /><linearGradient id="linearGradientF8FBFEEDF5FCDEEDFAD4E7F8E2E5E9"><stop style="stop-color:#F8FBFE;stop-opacity:1;" offset="0.0" id="stopF8FBFE" /><stop style="stop-color:#EDF5FC;stop-opacity:1;" offset="0.25" id="stopEDF5FC" /><stop style="stop-color:#DEEDFA;stop-opacity:1;" offset="0.5" id="stopDEEDFA" /><stop style="stop-color:#D4E7F8;stop-opacity:1;" offset="0.75" id="stopD4E7F8" /><stop style="stop-color:#E2E5E9;stop-opacity:1;" offset="1.0" id="stopE2E5E9" /></linearGradient><linearGradient xmlns:xlink="http://www.w3.org/1999/xlink" xlink:href="#linearGradientFAFBFCFFFFCC" id="linearGradientFAFBFCFFFFCC_879739485" x1="0" y1="369.0" x2="0" y2="429.0" gradientUnits="userSpaceOnUse" xlink:type="simple" xlink:actuate="onLoad" xlink:show="other" /><linearGradient id="linearGradientFAFBFCFFFFCC"><stop style="stop-color:#FAFBFC;stop-opacity:1;" offset="0.0" id="stopFAFBFC" /><stop style="stop-color:#FFFFCC;stop-opacity:1;" offset="1.0" id="stopFFFFCC" /></linearGradient><linearGradient xmlns:xlink="http://www.w3.org/1999/xlink" xlink:href="#linearGradientF8FBFEEDF5FCDEEDFAD4E7F8E2E5E9" id="linearGradientF8FBFEEDF5FCDEEDFAD4E7F8E2E5E9_1902987956" x1="0" y1="620.0" x2="0" y2="726.0" gradientUnits="userSpaceOnUse" xlink:type="simple" xlink:actuate="onLoad" xlink:show="other" /><linearGradient xmlns:xlink="http://www.w3.org/1999/xlink" xlink:href="#linearGradientFAFBFCFFFFCC" id="linearGradientFAFBFCFFFFCC_1924160373" x1="0" y1="597.0" x2="0" y2="657.0" gradientUnits="userSpaceOnUse" xlink:type="simple" xlink:actuate="onLoad" xlink:show="other" /><linearGradient xmlns:xlink="http://www.w3.org/1999/xlink" xlink:href="#linearGradientF8FBFEEDF5FCDEEDFAD4E7F8E2E5E9" id="linearGradientF8FBFEEDF5FCDEEDFAD4E7F8E2E5E9_1079392660" x1="0" y1="196.0" x2="0" y2="302.0" gradientUnits="userSpaceOnUse" xlink:type="simple" xlink:actuate="onLoad" xlink:show="other" /><linearGradient xmlns:xlink="http://www.w3.org/1999/xlink" xlink:href="#linearGradientFF6666FF9696FFB6B6" id="linearGradientFF6666FF9696FFB6B6_174159593" x1="0" y1="402.0" x2="0" y2="437.0" gradientUnits="userSpaceOnUse" xlink:type="simple" xlink:actuate="onLoad" xlink:show="other" /><linearGradient id="linearGradientFF6666FF9696FFB6B6"><stop style="stop-color:#FF6666;stop-opacity:1;" offset="0.0" id="stopFF6666" /><stop style="stop-color:#FF9696;stop-opacity:1;" offset="0.5" id="stopFF9696" /><stop style="stop-color:#FFB6B6;stop-opacity:1;" offset="1.0" id="stopFFB6B6" /></linearGradient><linearGradient xmlns:xlink="http://www.w3.org/1999/xlink" xlink:href="#linearGradientFFFF66FFFF96FFFFB6" id="linearGradientFFFF66FFFF96FFFFB6_289584635" x1="0" y1="730.0" x2="0" y2="765.0" gradientUnits="userSpaceOnUse" xlink:type="simple" xlink:actuate="onLoad" xlink:show="other" /><linearGradient id="linearGradientFFFF66FFFF96FFFFB6"><stop style="stop-color:#FFFF66;stop-opacity:1;" offset="0.0" id="stopFFFF66" /><stop style="stop-color:#FFFF96;stop-opacity:1;" offset="0.5" id="stopFFFF96" /><stop style="stop-color:#FFFFB6;stop-opacity:1;" offset="1.0" id="stopFFFFB6" /></linearGradient><linearGradient xmlns:xlink="http://www.w3.org/1999/xlink" xlink:href="#linearGradientFFFF66FFFF96FFFFB6" id="linearGradientFFFF66FFFF96FFFFB6_1641627477" x1="0" y1="290.0" x2="0" y2="325.0" gradientUnits="userSpaceOnUse" xlink:type="simple" xlink:actuate="onLoad" xlink:show="other" /><linearGradient xmlns:xlink="http://www.w3.org/1999/xlink" xlink:href="#linearGradientF8FBFEEDF5FCDEEDFAD4E7F8E2E5E9" id="linearGradientF8FBFEEDF5FCDEEDFAD4E7F8E2E5E9_271724643" x1="0" y1="378.0" x2="0" y2="484.0" gradientUnits="userSpaceOnUse" xlink:type="simple" xlink:actuate="onLoad" xlink:show="other" /></defs></svg>
