<?xml version="1.0" encoding="UTF-8"?>
<svg xmlns="http://www.w3.org/2000/svg" style="stroke-dasharray:none; shape-rendering:auto; font-family:'Arial'; text-rendering:auto; fill-opacity:1; color-interpolation:auto; color-rendering:auto; font-size:12; fill:black; stroke:black; image-rendering:auto; stroke-miterlimit:10; stroke-linecap:square; stroke-linejoin:miter; font-style:normal; stroke-width:1; stroke-dashoffset:0; font-weight:normal; stroke-opacity:1;" contentScriptType="text/ecmascript" preserveAspectRatio="xMidYMid meet" zoomAndPan="magnify" version="1.0" contentStyleType="text/css" xml:xlink="http://www.w3.org/1999/xlink" width="1380" height="720"><rect x="20" y="0" width="1360" height="720" ry="0" rx="0" style="stroke:#000000; fill:#FFFFFF" /><g componentSequence="69"><text x="-360" y="27" transform="rotate(270)" text-anchor="middle" style="font-weight:bold;font-size:10px;stroke:none; fill:#434343"><tspan dy="14" x="-360">SwimLane</tspan></text></g><g sequence="1"><ellipse cx="67" cy="99" rx="17" ry="17" stroke-width="1" style="fill:url(#linearGradient66FF6696FF96B6FFB6_1689294035);" stroke="336633" /></g><g sequence="2"><rect x="240" y="62" width="106" height="70" ry="5" rx="5" style="fill:url(#linearGradientF8FBFEEDF5FCDEEDFAD4E7F8E2E5E9_1786209845);" stroke="191970" /></g><g componentSequence="2"><text x="293" y="77" text-anchor="middle" style="font-weight:bold;font-size:10px;stroke:none; fill:#333399"><tspan dy="14" x="293">09.01 Validação</tspan><tspan dy="14" x="293">de vaga</tspan></text></g><g sequence="3"><polygon points=" 430 82 460 52 490 82 460 112 430 82" style="fill:url(#linearGradientFAFBFCFFFFCC_1850277795);" stroke="000000" /></g><g componentSequence="3"><text x="460" y="122" text-anchor="middle" style="font-weight:bold;font-size:10px;stroke:none; fill:#333399"><tspan dy="14" x="460">aprovac</tspan><tspan dy="14" x="460">ao</tspan></text></g><g sequence="4"><ellipse cx="1107" cy="69" rx="17" ry="17" stroke-width="3" style="fill:url(#linearGradientFF6666FF9696FFB6B6_726297614);" stroke="993333" /></g><g sequence="5"><rect x="400" y="222" width="106" height="84" ry="5" rx="5" style="fill:url(#linearGradientF8FBFEEDF5FCDEEDFAD4E7F8E2E5E9_1270637496);" stroke="191970" /></g><g componentSequence="5"><text x="453" y="237" text-anchor="middle" style="font-weight:bold;font-size:10px;stroke:none; fill:#333399"><tspan dy="14" x="453">Criação</tspan><tspan dy="14" x="453">alteração</tspan><tspan dy="14" x="453">comunicado</tspan></text></g><g sequence="6"><rect x="570" y="122" width="106" height="84" ry="5" rx="5" style="fill:url(#linearGradientF8FBFEEDF5FCDEEDFAD4E7F8E2E5E9_447472180);" stroke="191970" /></g><g componentSequence="6"><text x="623" y="137" text-anchor="middle" style="font-weight:bold;font-size:10px;stroke:none; fill:#333399"><tspan dy="14" x="623">09.01</tspan><tspan dy="14" x="623">Aprovação da</tspan><tspan dy="14" x="623">comuniicado</tspan></text></g><g sequence="7"><polygon points=" 740 132 770 102 800 132 770 162 740 132" style="fill:url(#linearGradientFAFBFCFFFFCC_867676965);" stroke="000000" /></g><g componentSequence="7"><text x="770" y="172" text-anchor="middle" style="font-weight:bold;font-size:10px;stroke:none; fill:#333399"><tspan dy="14" x="770">aprovac</tspan><tspan dy="14" x="770">ao</tspan></text></g><g sequence="22"><polygon points=" 120 212 150 182 180 212 150 242 120 212" style="fill:url(#linearGradientFAFBFCFFFFCC_1264948033);" stroke="000000" /></g><g componentSequence="22"><text x="150" y="245" text-anchor="middle" style="font-weight:bold;font-size:10px;stroke:none; fill:#333399"><tspan dy="14" x="150">Inicio</tspan></text></g><g sequence="25"><rect x="60" y="472" width="106" height="84" ry="5" rx="5" style="fill:url(#linearGradientF8FBFEEDF5FCDEEDFAD4E7F8E2E5E9_1668061238);" stroke="191970" /></g><g componentSequence="25"><text x="113" y="487" text-anchor="middle" style="font-weight:bold;font-size:10px;stroke:none; fill:#333399"><tspan dy="14" x="113">Criação de</tspan><tspan dy="14" x="113">alteração</tspan><tspan dy="14" x="113">comunicado</tspan></text></g><g sequence="27"><rect x="260" y="472" width="106" height="84" ry="5" rx="5" style="fill:url(#linearGradientF8FBFEEDF5FCDEEDFAD4E7F8E2E5E9_647199789);" stroke="191970" /></g><g componentSequence="27"><text x="313" y="487" text-anchor="middle" style="font-weight:bold;font-size:10px;stroke:none; fill:#333399"><tspan dy="14" x="313">Aprovacao</tspan><tspan dy="14" x="313">Comunicao</tspan><tspan dy="14" x="313">interna</tspan></text></g><g sequence="32"><rect x="470" y="492" width="106" height="56" ry="5" rx="5" style="fill:url(#linearGradientF8FBFEEDF5FCDEEDFAD4E7F8E2E5E9_682876225);" stroke="191970" /></g><g componentSequence="32"><text x="523" y="509" text-anchor="middle" style="font-weight:bold;font-size:10px;stroke:none; fill:#333399"><tspan dy="14" x="523">Aprovacao RH</tspan></text></g><g sequence="36"><rect x="760" y="472" width="106" height="56" ry="5" rx="5" style="fill:url(#linearGradientF8FBFEEDF5FCDEEDFAD4E7F8E2E5E9_1328262285);" stroke="191970" /></g><g componentSequence="36"><text x="813" y="489" text-anchor="middle" style="font-weight:bold;font-size:10px;stroke:none; fill:#333399"><tspan dy="14" x="813">Aprovacao CFO</tspan></text></g><g sequence="39"><polygon points=" 490 387 520 357 550 387 520 417 490 387" style="fill:url(#linearGradientFAFBFCFFFFCC_1208037494);" stroke="000000" /></g><g componentSequence="39"><text x="520" y="427" text-anchor="middle" style="font-weight:bold;font-size:10px;stroke:none; fill:#333399"><tspan dy="14" x="520">aprovac</tspan><tspan dy="14" x="520">ao</tspan></text></g><g sequence="40"><polygon points=" 920 488 950 458 980 488 950 518 920 488" style="fill:url(#linearGradientFAFBFCFFFFCC_1968070479);" stroke="000000" /></g><g componentSequence="40"><text x="950" y="528" text-anchor="middle" style="font-weight:bold;font-size:10px;stroke:none; fill:#333399"><tspan dy="14" x="950">aprovac</tspan><tspan dy="14" x="950">ao</tspan></text></g><g sequence="41"><polygon points=" 670 439 700 409 730 439 700 469 670 439" style="fill:url(#linearGradientFAFBFCFFFFCC_1126292850);" stroke="000000" /></g><g componentSequence="41"><text x="700" y="479" text-anchor="middle" style="font-weight:bold;font-size:10px;stroke:none; fill:#333399"><tspan dy="14" x="700">aprovac</tspan><tspan dy="14" x="700">ao</tspan></text></g><g sequence="49"><rect x="920" y="342" width="106" height="70" ry="5" rx="5" style="fill:url(#linearGradientF8FBFEEDF5FCDEEDFAD4E7F8E2E5E9_1375493727);" stroke="191970" /></g><g componentSequence="49"><text x="973" y="357" text-anchor="middle" style="font-weight:bold;font-size:10px;stroke:none; fill:#333399"><tspan dy="14" x="973">Aprovacao</tspan><tspan dy="14" x="973">solicitante</tspan></text></g><g sequence="61"><polygon points=" 990 242 1020 212 1050 242 1020 272 990 242" style="fill:url(#linearGradientFAFBFCFFFFCC_272582294);" stroke="000000" /></g><g componentSequence="61"><text x="1020" y="275" text-anchor="middle" style="font-weight:bold;font-size:10px;stroke:none; fill:#333399"><tspan dy="14" x="1020">ap</tspan></text></g><g sequence="74"><ellipse cx="107" cy="619" rx="17" ry="17" stroke-width="1" style="fill:url(#linearGradientFFFF66FFFF96FFFFB6_395102201);" stroke="999900" /></g><g sequence="74"><polygon points=" 93 612 108 612 108 605 123 620 108 635 108 628 93 628" style="stroke:#999900; fill:none" /></g><g sequence="76"><ellipse cx="957" cy="629" rx="17" ry="17" stroke-width="1" style="fill:url(#linearGradientFFFF66FFFF96FFFFB6_1510691383);" stroke="999900" /></g><g sequence="76"><polygon points=" 943 622 958 622 958 615 973 630 958 645 958 638 943 638" style="stroke:none; fill:#999900" /></g><g sequence="78"><ellipse cx="577" cy="333" rx="17" ry="17" stroke-width="1" style="fill:url(#linearGradientFFFF66FFFF96FFFFB6_1765204367);" stroke="999900" /></g><g sequence="78"><polygon points=" 563 326 578 326 578 319 593 334 578 349 578 342 563 342" style="stroke:none; fill:#999900" /></g><g sequence="80"><ellipse cx="1087" cy="229" rx="17" ry="17" stroke-width="1" style="fill:url(#linearGradientFFFF66FFFF96FFFFB6_56033737);" stroke="999900" /></g><g sequence="80"><polygon points=" 1073 222 1088 222 1088 215 1103 230 1088 245 1088 238 1073 238" style="stroke:none; fill:#999900" /></g><g componentSequence="12"><text x="398" y="101" style="font-size:10px;font-weight:none;stroke:none; fill:#333399" text-anchor="left" /></g><g componentSequence="13"><text x="466" y="188" style="font-size:10px;font-weight:none;stroke:none; fill:#333399" text-anchor="left" /></g><g componentSequence="16"><text x="718" y="158" style="font-size:10px;font-weight:none;stroke:none; fill:#333399" text-anchor="left" /></g><g componentSequence="17"><text x="955" y="109" style="font-size:10px;font-weight:none;stroke:none; fill:#333399" text-anchor="left" /></g><g componentSequence="24"><text x="800" y="86" style="font-size:10px;font-weight:none;stroke:none; fill:#333399" text-anchor="left" /></g><g componentSequence="26"><text x="141" y="371" style="font-size:10px;font-weight:none;stroke:none; fill:#333399" text-anchor="left" /></g><g componentSequence="28"><text x="223" y="514" style="font-size:10px;font-weight:none;stroke:none; fill:#333399" text-anchor="left" /></g><g componentSequence="42"><text x="438" y="455" style="font-size:10px;font-weight:none;stroke:none; fill:#333399" text-anchor="left" /></g><g componentSequence="43"><text x="532" y="475" style="font-size:10px;font-weight:none;stroke:none; fill:#333399" text-anchor="left" /></g><g componentSequence="44"><text x="633" y="486" style="font-size:10px;font-weight:none;stroke:none; fill:#333399" text-anchor="left" /></g><g componentSequence="46"><text x="903" y="505" style="font-size:10px;font-weight:none;stroke:none; fill:#333399" text-anchor="left" /></g><g componentSequence="50"><text x="1116" y="359" style="font-size:10px;font-weight:none;stroke:none; fill:#333399" text-anchor="left" /></g><g componentSequence="51"><text x="973" y="435" style="font-size:10px;font-weight:none;stroke:none; fill:#333399" text-anchor="left" /></g><g componentSequence="58"><text x="830" y="235" style="font-size:10px;font-weight:none;stroke:none; fill:#333399" text-anchor="left" /></g><g componentSequence="59"><text x="227" y="165" style="font-size:10px;font-weight:none;stroke:none; fill:#333399" text-anchor="left" /></g><g componentSequence="60"><text x="920" y="258" style="font-size:10px;font-weight:none;stroke:none; fill:#333399" text-anchor="left" /></g><g componentSequence="62"><text x="1080" y="149" style="font-size:10px;font-weight:none;stroke:none; fill:#333399" text-anchor="left" /></g><g componentSequence="64"><text x="548" y="214" style="font-size:10px;font-weight:none;stroke:none; fill:#333399" text-anchor="left" /></g><g componentSequence="66"><text x="309" y="408" style="font-size:10px;font-weight:none;stroke:none; fill:#333399" text-anchor="left" /></g><g componentSequence="67"><text x="755" y="475" style="font-size:10px;font-weight:none;stroke:none; fill:#333399" text-anchor="left" /></g><g componentSequence="68"><text x="646" y="239" style="font-size:10px;font-weight:none;stroke:none; fill:#333399" text-anchor="left" /></g><g componentSequence="71"><text x="110" y="149" style="font-size:10px;font-weight:none;stroke:none; fill:#333399" text-anchor="left" /></g><g componentSequence="75"><text x="119" y="579" style="font-size:10px;font-weight:none;stroke:none; fill:#333399" text-anchor="left" /></g><g componentSequence="77"><text x="965" y="586" style="font-size:10px;font-weight:none;stroke:none; fill:#333399" text-anchor="left" /></g><g componentSequence="82"><text x="1004" y="321" style="font-size:10px;font-weight:none;stroke:none; fill:#333399" text-anchor="left" /></g><g componentSequence="79"><text x="567" y="360" style="font-size:10px;font-weight:none;stroke:none; fill:#333399" text-anchor="left" /></g><g componentSequence="81"><text x="1070" y="240" style="font-size:10px;font-weight:none;stroke:none; fill:#333399" text-anchor="left" /></g><path style="fill:none; stroke:#000000;stroke-width:1" d="M76.0 114.0 L120.0 181.0" /><polygon style="fill:#000000; stroke:#000000;" points=" 119 170 120 181 110 175 116 174" /><path style="fill:none; stroke:#000000;stroke-width:1" d="M346.0 99.0 L429.0 101.0" /><polygon style="fill:#000000; stroke:#000000;" points=" 419 96 429 101 419 106 421 101" /><path style="fill:none; stroke:#000000;stroke-width:1" d="M180.0 198.0 L253.0 132.0" /><polygon style="fill:#000000; stroke:#000000;" points=" 242 135 253 132 249 142 247 137" /><path style="fill:none; stroke:#000000;stroke-width:1" d="M457.0 154.0 L454.0 221.0" /><polygon style="fill:#000000; stroke:#000000;" points=" 459 211 454 221 449 211 454 213" /><path style="fill:none; stroke:#000000;stroke-width:1" d="M490.0 101.0 L1090.0 69.0" /><polygon style="fill:#000000; stroke:#000000;" points=" 1080 65 1090 69 1080 75 1082 69" /><path style="fill:none; stroke:#000000;stroke-width:1" d="M800.0 145.0 L1090.0 73.0" /><polygon style="fill:#000000; stroke:#000000;" points=" 1079 71 1090 73 1081 80 1082 75" /><path style="fill:none; stroke:#000000;stroke-width:1" d="M980.0 508.0 L1105.0 505.0 L1107.0 86.0" /><polygon style="fill:#000000; stroke:#000000;" points=" 1102 96 1107 86 1112 96 1107 94" /><path style="fill:none; stroke:#000000;stroke-width:1" d="M550.0 390.0 L1092.0 78.0" /><polygon style="fill:#000000; stroke:#000000;" points=" 1081 79 1092 78 1086 87 1085 82" /><path style="fill:none; stroke:#000000;stroke-width:1" d="M730.0 430.0 L1095.0 81.0" /><polygon style="fill:#000000; stroke:#000000;" points=" 1084 84 1095 81 1091 92 1089 87" /><path style="fill:none; stroke:#000000;stroke-width:1" d="M1040.0 211.0 L1100.0 85.0" /><polygon style="fill:#000000; stroke:#000000;" points=" 1091 92 1100 85 1100 96 1097 92" /><path style="fill:none; stroke:#000000;stroke-width:1" d="M506.0 232.0 L569.0 195.0" /><polygon style="fill:#000000; stroke:#000000;" points=" 558 196 569 195 563 204 562 199" /><path style="fill:none; stroke:#000000;stroke-width:1" d="M751.0 204.0 L744.0 225.0 L506.0 256.0" /><polygon style="fill:#000000; stroke:#000000;" points=" 517 260 506 256 515 250 514 255" /><path style="fill:none; stroke:#000000;stroke-width:1" d="M676.0 160.0 L739.0 155.0" /><polygon style="fill:#000000; stroke:#000000;" points=" 729 151 739 155 729 161 731 156" /><path style="fill:none; stroke:#000000;stroke-width:1" d="M144.0 270.0 L118.0 471.0" /><polygon style="fill:#000000; stroke:#000000;" points=" 124 462 118 471 114 460 119 463" /><path style="fill:none; stroke:#000000;stroke-width:1" d="M166.0 514.0 L259.0 514.0" /><polygon style="fill:#000000; stroke:#000000;" points=" 249 509 259 514 249 519 251 514" /><path style="fill:none; stroke:#000000;stroke-width:1" d="M489.0 408.0 L186.0 408.0 L142.0 471.0" /><polygon style="fill:#000000; stroke:#000000;" points=" 152 466 142 471 144 460 147 464" /><path style="fill:none; stroke:#000000;stroke-width:1" d="M108.0 602.0 L110.0 556.0" /><polygon style="fill:#000000; stroke:#000000;" points=" 105 566 110 556 115 566 110 564" /><path style="fill:none; stroke:#000000;stroke-width:1" d="M366.0 486.0 L489.0 423.0" /><polygon style="fill:#000000; stroke:#000000;" points=" 478 423 489 423 482 432 482 427" /><path style="fill:none; stroke:#000000;stroke-width:1" d="M576.0 502.0 L669.0 470.0" /><polygon style="fill:#000000; stroke:#000000;" points=" 658 469 669 470 661 478 661 473" /><path style="fill:none; stroke:#000000;stroke-width:1" d="M521.0 459.0 L522.0 491.0" /><polygon style="fill:#000000; stroke:#000000;" points=" 527 481 522 491 517 481 522 483" /><path style="fill:none; stroke:#000000;stroke-width:1" d="M866.0 503.0 L919.0 507.0" /><polygon style="fill:#000000; stroke:#000000;" points=" 909 501 919 507 909 511 911 506" /><path style="fill:none; stroke:#000000;stroke-width:1" d="M730.0 470.0 L759.0 481.0" /><polygon style="fill:#000000; stroke:#000000;" points=" 751 473 759 481 748 482 752 478" /><path style="fill:none; stroke:#000000;stroke-width:1" d="M550.0 368.0 L567.0 347.0" /><polygon style="fill:#000000; stroke:#000000;" points=" 557 352 567 347 565 358 562 353" /><path style="fill:none; stroke:#000000;stroke-width:1" d="M959.0 457.0 L966.0 412.0" /><polygon style="fill:#000000; stroke:#000000;" points=" 960 421 966 412 969 423 965 420" /><path style="fill:none; stroke:#000000;stroke-width:1" d="M953.0 560.0 L956.0 612.0" /><polygon style="fill:#000000; stroke:#000000;" points=" 960 602 956 612 950 602 956 604" /><path style="fill:none; stroke:#000000;stroke-width:1" d="M1050.0 244.0 L1071.0 235.0" /><polygon style="fill:#000000; stroke:#000000;" points=" 1060 234 1071 235 1064 244 1064 238" /><path style="fill:none; stroke:#000000;stroke-width:1" d="M986.0 341.0 L1002.0 300.0" /><polygon style="fill:#000000; stroke:#000000;" points=" 994 307 1002 300 1003 311 999 307" /><defs><linearGradient xmlns:xlink="http://www.w3.org/1999/xlink" xlink:href="#linearGradient66FF6696FF96B6FFB6" id="linearGradient66FF6696FF96B6FFB6_1689294035" x1="0" y1="82.0" x2="0" y2="117.0" gradientUnits="userSpaceOnUse" xlink:type="simple" xlink:actuate="onLoad" xlink:show="other" /><linearGradient id="linearGradient66FF6696FF96B6FFB6"><stop style="stop-color:#66FF66;stop-opacity:1;" offset="0.0" id="stop66FF66" /><stop style="stop-color:#96FF96;stop-opacity:1;" offset="0.5" id="stop96FF96" /><stop style="stop-color:#B6FFB6;stop-opacity:1;" offset="1.0" id="stopB6FFB6" /></linearGradient><linearGradient xmlns:xlink="http://www.w3.org/1999/xlink" xlink:href="#linearGradientF8FBFEEDF5FCDEEDFAD4E7F8E2E5E9" id="linearGradientF8FBFEEDF5FCDEEDFAD4E7F8E2E5E9_1786209845" x1="0" y1="62.0" x2="0" y2="168.0" gradientUnits="userSpaceOnUse" xlink:type="simple" xlink:actuate="onLoad" xlink:show="other" /><linearGradient id="linearGradientF8FBFEEDF5FCDEEDFAD4E7F8E2E5E9"><stop style="stop-color:#F8FBFE;stop-opacity:1;" offset="0.0" id="stopF8FBFE" /><stop style="stop-color:#EDF5FC;stop-opacity:1;" offset="0.25" id="stopEDF5FC" /><stop style="stop-color:#DEEDFA;stop-opacity:1;" offset="0.5" id="stopDEEDFA" /><stop style="stop-color:#D4E7F8;stop-opacity:1;" offset="0.75" id="stopD4E7F8" /><stop style="stop-color:#E2E5E9;stop-opacity:1;" offset="1.0" id="stopE2E5E9" /></linearGradient><linearGradient xmlns:xlink="http://www.w3.org/1999/xlink" xlink:href="#linearGradientFAFBFCFFFFCC" id="linearGradientFAFBFCFFFFCC_1850277795" x1="0" y1="52.0" x2="0" y2="112.0" gradientUnits="userSpaceOnUse" xlink:type="simple" xlink:actuate="onLoad" xlink:show="other" /><linearGradient id="linearGradientFAFBFCFFFFCC"><stop style="stop-color:#FAFBFC;stop-opacity:1;" offset="0.0" id="stopFAFBFC" /><stop style="stop-color:#FFFFCC;stop-opacity:1;" offset="1.0" id="stopFFFFCC" /></linearGradient><linearGradient xmlns:xlink="http://www.w3.org/1999/xlink" xlink:href="#linearGradientFF6666FF9696FFB6B6" id="linearGradientFF6666FF9696FFB6B6_726297614" x1="0" y1="52.0" x2="0" y2="87.0" gradientUnits="userSpaceOnUse" xlink:type="simple" xlink:actuate="onLoad" xlink:show="other" /><linearGradient id="linearGradientFF6666FF9696FFB6B6"><stop style="stop-color:#FF6666;stop-opacity:1;" offset="0.0" id="stopFF6666" /><stop style="stop-color:#FF9696;stop-opacity:1;" offset="0.5" id="stopFF9696" /><stop style="stop-color:#FFB6B6;stop-opacity:1;" offset="1.0" id="stopFFB6B6" /></linearGradient><linearGradient xmlns:xlink="http://www.w3.org/1999/xlink" xlink:href="#linearGradientF8FBFEEDF5FCDEEDFAD4E7F8E2E5E9" id="linearGradientF8FBFEEDF5FCDEEDFAD4E7F8E2E5E9_1270637496" x1="0" y1="222.0" x2="0" y2="328.0" gradientUnits="userSpaceOnUse" xlink:type="simple" xlink:actuate="onLoad" xlink:show="other" /><linearGradient xmlns:xlink="http://www.w3.org/1999/xlink" xlink:href="#linearGradientF8FBFEEDF5FCDEEDFAD4E7F8E2E5E9" id="linearGradientF8FBFEEDF5FCDEEDFAD4E7F8E2E5E9_447472180" x1="0" y1="122.0" x2="0" y2="228.0" gradientUnits="userSpaceOnUse" xlink:type="simple" xlink:actuate="onLoad" xlink:show="other" /><linearGradient xmlns:xlink="http://www.w3.org/1999/xlink" xlink:href="#linearGradientFAFBFCFFFFCC" id="linearGradientFAFBFCFFFFCC_867676965" x1="0" y1="102.0" x2="0" y2="162.0" gradientUnits="userSpaceOnUse" xlink:type="simple" xlink:actuate="onLoad" xlink:show="other" /><linearGradient xmlns:xlink="http://www.w3.org/1999/xlink" xlink:href="#linearGradientFAFBFCFFFFCC" id="linearGradientFAFBFCFFFFCC_1264948033" x1="0" y1="182.0" x2="0" y2="242.0" gradientUnits="userSpaceOnUse" xlink:type="simple" xlink:actuate="onLoad" xlink:show="other" /><linearGradient xmlns:xlink="http://www.w3.org/1999/xlink" xlink:href="#linearGradientF8FBFEEDF5FCDEEDFAD4E7F8E2E5E9" id="linearGradientF8FBFEEDF5FCDEEDFAD4E7F8E2E5E9_1668061238" x1="0" y1="472.0" x2="0" y2="578.0" gradientUnits="userSpaceOnUse" xlink:type="simple" xlink:actuate="onLoad" xlink:show="other" /><linearGradient xmlns:xlink="http://www.w3.org/1999/xlink" xlink:href="#linearGradientF8FBFEEDF5FCDEEDFAD4E7F8E2E5E9" id="linearGradientF8FBFEEDF5FCDEEDFAD4E7F8E2E5E9_647199789" x1="0" y1="472.0" x2="0" y2="578.0" gradientUnits="userSpaceOnUse" xlink:type="simple" xlink:actuate="onLoad" xlink:show="other" /><linearGradient xmlns:xlink="http://www.w3.org/1999/xlink" xlink:href="#linearGradientF8FBFEEDF5FCDEEDFAD4E7F8E2E5E9" id="linearGradientF8FBFEEDF5FCDEEDFAD4E7F8E2E5E9_682876225" x1="0" y1="492.0" x2="0" y2="598.0" gradientUnits="userSpaceOnUse" xlink:type="simple" xlink:actuate="onLoad" xlink:show="other" /><linearGradient xmlns:xlink="http://www.w3.org/1999/xlink" xlink:href="#linearGradientF8FBFEEDF5FCDEEDFAD4E7F8E2E5E9" id="linearGradientF8FBFEEDF5FCDEEDFAD4E7F8E2E5E9_1328262285" x1="0" y1="472.0" x2="0" y2="578.0" gradientUnits="userSpaceOnUse" xlink:type="simple" xlink:actuate="onLoad" xlink:show="other" /><linearGradient xmlns:xlink="http://www.w3.org/1999/xlink" xlink:href="#linearGradientFAFBFCFFFFCC" id="linearGradientFAFBFCFFFFCC_1208037494" x1="0" y1="357.0" x2="0" y2="417.0" gradientUnits="userSpaceOnUse" xlink:type="simple" xlink:actuate="onLoad" xlink:show="other" /><linearGradient xmlns:xlink="http://www.w3.org/1999/xlink" xlink:href="#linearGradientFAFBFCFFFFCC" id="linearGradientFAFBFCFFFFCC_1968070479" x1="0" y1="458.0" x2="0" y2="518.0" gradientUnits="userSpaceOnUse" xlink:type="simple" xlink:actuate="onLoad" xlink:show="other" /><linearGradient xmlns:xlink="http://www.w3.org/1999/xlink" xlink:href="#linearGradientFAFBFCFFFFCC" id="linearGradientFAFBFCFFFFCC_1126292850" x1="0" y1="409.0" x2="0" y2="469.0" gradientUnits="userSpaceOnUse" xlink:type="simple" xlink:actuate="onLoad" xlink:show="other" /><linearGradient xmlns:xlink="http://www.w3.org/1999/xlink" xlink:href="#linearGradientF8FBFEEDF5FCDEEDFAD4E7F8E2E5E9" id="linearGradientF8FBFEEDF5FCDEEDFAD4E7F8E2E5E9_1375493727" x1="0" y1="342.0" x2="0" y2="448.0" gradientUnits="userSpaceOnUse" xlink:type="simple" xlink:actuate="onLoad" xlink:show="other" /><linearGradient xmlns:xlink="http://www.w3.org/1999/xlink" xlink:href="#linearGradientFAFBFCFFFFCC" id="linearGradientFAFBFCFFFFCC_272582294" x1="0" y1="212.0" x2="0" y2="272.0" gradientUnits="userSpaceOnUse" xlink:type="simple" xlink:actuate="onLoad" xlink:show="other" /><linearGradient xmlns:xlink="http://www.w3.org/1999/xlink" xlink:href="#linearGradientFFFF66FFFF96FFFFB6" id="linearGradientFFFF66FFFF96FFFFB6_395102201" x1="0" y1="602.0" x2="0" y2="637.0" gradientUnits="userSpaceOnUse" xlink:type="simple" xlink:actuate="onLoad" xlink:show="other" /><linearGradient id="linearGradientFFFF66FFFF96FFFFB6"><stop style="stop-color:#FFFF66;stop-opacity:1;" offset="0.0" id="stopFFFF66" /><stop style="stop-color:#FFFF96;stop-opacity:1;" offset="0.5" id="stopFFFF96" /><stop style="stop-color:#FFFFB6;stop-opacity:1;" offset="1.0" id="stopFFFFB6" /></linearGradient><linearGradient xmlns:xlink="http://www.w3.org/1999/xlink" xlink:href="#linearGradientFFFF66FFFF96FFFFB6" id="linearGradientFFFF66FFFF96FFFFB6_1510691383" x1="0" y1="612.0" x2="0" y2="647.0" gradientUnits="userSpaceOnUse" xlink:type="simple" xlink:actuate="onLoad" xlink:show="other" /><linearGradient xmlns:xlink="http://www.w3.org/1999/xlink" xlink:href="#linearGradientFFFF66FFFF96FFFFB6" id="linearGradientFFFF66FFFF96FFFFB6_1765204367" x1="0" y1="316.0" x2="0" y2="351.0" gradientUnits="userSpaceOnUse" xlink:type="simple" xlink:actuate="onLoad" xlink:show="other" /><linearGradient xmlns:xlink="http://www.w3.org/1999/xlink" xlink:href="#linearGradientFFFF66FFFF96FFFFB6" id="linearGradientFFFF66FFFF96FFFFB6_56033737" x1="0" y1="212.0" x2="0" y2="247.0" gradientUnits="userSpaceOnUse" xlink:type="simple" xlink:actuate="onLoad" xlink:show="other" /></defs></svg>
