<?xml version="1.0" encoding="UTF-8"?>
<svg xmlns="http://www.w3.org/2000/svg" style="stroke-dasharray:none; shape-rendering:auto; font-family:'Arial'; text-rendering:auto; fill-opacity:1; color-interpolation:auto; color-rendering:auto; font-size:12; fill:black; stroke:black; image-rendering:auto; stroke-miterlimit:10; stroke-linecap:square; stroke-linejoin:miter; font-style:normal; stroke-width:1; stroke-dashoffset:0; font-weight:normal; stroke-opacity:1;" contentScriptType="text/ecmascript" preserveAspectRatio="xMidYMid meet" zoomAndPan="magnify" version="1.0" contentStyleType="text/css" xml:xlink="http://www.w3.org/1999/xlink" width="1303" height="566"><rect x="0" y="375" width="1291" height="191" ry="0" rx="0" style="stroke:#000000; fill:#D0DAAE" /><g componentSequence="10"><text x="-470" y="7" transform="rotate(270)" text-anchor="middle" style="font-weight:bold;font-size:10px;stroke:none; fill:#434343"><tspan dy="14" x="-470">Co...</tspan></text></g><rect x="12" y="175" width="1291" height="201" ry="0" rx="0" style="stroke:#000000; fill:#ADC9AC" /><g componentSequence="9"><text x="-275" y="19" transform="rotate(270)" text-anchor="middle" style="font-weight:bold;font-size:10px;stroke:none; fill:#434343"><tspan dy="14" x="-275">Cordenação RH</tspan></text></g><rect x="12" y="0" width="1261" height="176" ry="0" rx="0" style="stroke:#000000; fill:#82B0B7" /><g componentSequence="8"><text x="-88" y="19" transform="rotate(270)" text-anchor="middle" style="font-weight:bold;font-size:10px;stroke:none; fill:#434343"><tspan dy="14" x="-88">Solicitante</tspan></text></g><g sequence="1"><ellipse cx="117" cy="62" rx="17" ry="17" stroke-width="1" style="fill:url(#linearGradient66FF6696FF96B6FFB6_340691650);" stroke="336633" /></g><g sequence="2"><rect x="230" y="255" width="106" height="70" ry="5" rx="5" style="fill:url(#linearGradientF8FBFEEDF5FCDEEDFAD4E7F8E2E5E9_445216315);" stroke="191970" /></g><g componentSequence="2"><text x="283" y="270" text-anchor="middle" style="font-weight:bold;font-size:10px;stroke:none; fill:#333399"><tspan dy="14" x="283">09.01 Validação</tspan><tspan dy="14" x="283">de vaga</tspan></text></g><g sequence="3"><polygon points=" 460 285 490 255 520 285 490 315 460 285" style="fill:url(#linearGradientFAFBFCFFFFCC_515301810);" stroke="000000" /></g><g componentSequence="3"><text x="490" y="325" text-anchor="middle" style="font-weight:bold;font-size:10px;stroke:none; fill:#333399"><tspan dy="14" x="490">aprovac</tspan><tspan dy="14" x="490">ao</tspan></text></g><g sequence="4"><ellipse cx="957" cy="72" rx="17" ry="17" stroke-width="3" style="fill:url(#linearGradientFF6666FF9696FFB6B6_1538554880);" stroke="993333" /></g><g sequence="5"><rect x="440" y="445" width="106" height="84" ry="5" rx="5" style="fill:url(#linearGradientF8FBFEEDF5FCDEEDFAD4E7F8E2E5E9_1003283758);" stroke="191970" /></g><g componentSequence="5"><text x="493" y="460" text-anchor="middle" style="font-weight:bold;font-size:10px;stroke:none; fill:#333399"><tspan dy="14" x="493">Criação</tspan><tspan dy="14" x="493">alteração</tspan><tspan dy="14" x="493">comunicado</tspan></text></g><g sequence="6"><rect x="600" y="88" width="106" height="84" ry="5" rx="5" style="fill:url(#linearGradientF8FBFEEDF5FCDEEDFAD4E7F8E2E5E9_1780835522);" stroke="191970" /></g><g componentSequence="6"><text x="653" y="103" text-anchor="middle" style="font-weight:bold;font-size:10px;stroke:none; fill:#333399"><tspan dy="14" x="653">09.01</tspan><tspan dy="14" x="653">Aprovação da</tspan><tspan dy="14" x="653">comuniicado</tspan></text></g><g sequence="7"><polygon points=" 770 125 800 95 830 125 800 155 770 125" style="fill:url(#linearGradientFAFBFCFFFFCC_1136108357);" stroke="000000" /></g><g componentSequence="7"><text x="800" y="165" text-anchor="middle" style="font-weight:bold;font-size:10px;stroke:none; fill:#333399"><tspan dy="14" x="800">aprovac</tspan><tspan dy="14" x="800">ao</tspan></text></g><g componentSequence="11"><text x="126" y="243" style="font-size:10px;font-weight:none;stroke:none; fill:#333399" text-anchor="left" /></g><g componentSequence="12"><text x="408" y="299" style="font-size:10px;font-weight:none;stroke:none; fill:#333399" text-anchor="left" /></g><g componentSequence="13"><text x="501" y="401" style="font-size:10px;font-weight:none;stroke:none; fill:#333399" text-anchor="left" /></g><g componentSequence="14"><text x="633" y="72" style="font-size:10px;font-weight:none;stroke:none; fill:#333399" text-anchor="left" /></g><g componentSequence="16"><text x="748" y="139" style="font-size:10px;font-weight:none;stroke:none; fill:#333399" text-anchor="left" /></g><g componentSequence="17"><text x="922" y="132" style="font-size:10px;font-weight:none;stroke:none; fill:#333399" text-anchor="left" /></g><g componentSequence="18"><text x="568" y="289" style="font-size:10px;font-weight:none;stroke:none; fill:#333399" text-anchor="left" /></g><g componentSequence="19"><text x="810" y="537" style="font-size:10px;font-weight:none;stroke:none; fill:#333399" text-anchor="left" /></g><path style="fill:none; stroke:#000000;stroke-width:1" d="M117.0 79.0 L116.0 292.0 L229.0 290.0" /><polygon style="fill:#000000; stroke:#000000;" points=" 219 285 229 290 219 295 221 290" /><path style="fill:none; stroke:#000000;stroke-width:1" d="M336.0 294.0 L459.0 303.0" /><polygon style="fill:#000000; stroke:#000000;" points=" 449 297 459 303 449 307 451 302" /><path style="fill:none; stroke:#000000;stroke-width:1" d="M490.0 357.0 L492.0 444.0" /><polygon style="fill:#000000; stroke:#000000;" points=" 497 434 492 444 487 434 492 436" /><path style="fill:none; stroke:#000000;stroke-width:1" d="M489.0 254.0 L489.0 72.0 L939.0 72.0" /><polygon style="fill:#000000; stroke:#000000;" points=" 929 67 939 72 929 77 931 72" /><path style="fill:none; stroke:#000000;stroke-width:1" d="M830.0 142.0 L959.0 126.0 L957.0 89.0" /><polygon style="fill:#000000; stroke:#000000;" points=" 953 99 957 89 963 99 957 97" /><path style="fill:none; stroke:#000000;stroke-width:1" d="M546.0 478.0 L558.0 476.0 L558.0 130.0 L599.0 130.0" /><polygon style="fill:#000000; stroke:#000000;" points=" 589 125 599 130 589 135 591 130" /><path style="fill:none; stroke:#000000;stroke-width:1" d="M800.0 197.0 L800.0 549.0 L493.0 549.0 L493.0 529.0" /><polygon style="fill:#000000; stroke:#000000;" points=" 488 539 493 529 498 539 493 537" /><path style="fill:none; stroke:#000000;stroke-width:1" d="M706.0 135.0 L769.0 142.0" /><polygon style="fill:#000000; stroke:#000000;" points=" 760 136 769 142 759 146 761 141" /><defs><linearGradient xmlns:xlink="http://www.w3.org/1999/xlink" xlink:href="#linearGradient66FF6696FF96B6FFB6" id="linearGradient66FF6696FF96B6FFB6_340691650" x1="0" y1="45.0" x2="0" y2="80.0" gradientUnits="userSpaceOnUse" xlink:type="simple" xlink:actuate="onLoad" xlink:show="other" /><linearGradient id="linearGradient66FF6696FF96B6FFB6"><stop style="stop-color:#66FF66;stop-opacity:1;" offset="0.0" id="stop66FF66" /><stop style="stop-color:#96FF96;stop-opacity:1;" offset="0.5" id="stop96FF96" /><stop style="stop-color:#B6FFB6;stop-opacity:1;" offset="1.0" id="stopB6FFB6" /></linearGradient><linearGradient xmlns:xlink="http://www.w3.org/1999/xlink" xlink:href="#linearGradientF8FBFEEDF5FCDEEDFAD4E7F8E2E5E9" id="linearGradientF8FBFEEDF5FCDEEDFAD4E7F8E2E5E9_445216315" x1="0" y1="255.0" x2="0" y2="361.0" gradientUnits="userSpaceOnUse" xlink:type="simple" xlink:actuate="onLoad" xlink:show="other" /><linearGradient id="linearGradientF8FBFEEDF5FCDEEDFAD4E7F8E2E5E9"><stop style="stop-color:#F8FBFE;stop-opacity:1;" offset="0.0" id="stopF8FBFE" /><stop style="stop-color:#EDF5FC;stop-opacity:1;" offset="0.25" id="stopEDF5FC" /><stop style="stop-color:#DEEDFA;stop-opacity:1;" offset="0.5" id="stopDEEDFA" /><stop style="stop-color:#D4E7F8;stop-opacity:1;" offset="0.75" id="stopD4E7F8" /><stop style="stop-color:#E2E5E9;stop-opacity:1;" offset="1.0" id="stopE2E5E9" /></linearGradient><linearGradient xmlns:xlink="http://www.w3.org/1999/xlink" xlink:href="#linearGradientFAFBFCFFFFCC" id="linearGradientFAFBFCFFFFCC_515301810" x1="0" y1="255.0" x2="0" y2="315.0" gradientUnits="userSpaceOnUse" xlink:type="simple" xlink:actuate="onLoad" xlink:show="other" /><linearGradient id="linearGradientFAFBFCFFFFCC"><stop style="stop-color:#FAFBFC;stop-opacity:1;" offset="0.0" id="stopFAFBFC" /><stop style="stop-color:#FFFFCC;stop-opacity:1;" offset="1.0" id="stopFFFFCC" /></linearGradient><linearGradient xmlns:xlink="http://www.w3.org/1999/xlink" xlink:href="#linearGradientFF6666FF9696FFB6B6" id="linearGradientFF6666FF9696FFB6B6_1538554880" x1="0" y1="55.0" x2="0" y2="90.0" gradientUnits="userSpaceOnUse" xlink:type="simple" xlink:actuate="onLoad" xlink:show="other" /><linearGradient id="linearGradientFF6666FF9696FFB6B6"><stop style="stop-color:#FF6666;stop-opacity:1;" offset="0.0" id="stopFF6666" /><stop style="stop-color:#FF9696;stop-opacity:1;" offset="0.5" id="stopFF9696" /><stop style="stop-color:#FFB6B6;stop-opacity:1;" offset="1.0" id="stopFFB6B6" /></linearGradient><linearGradient xmlns:xlink="http://www.w3.org/1999/xlink" xlink:href="#linearGradientF8FBFEEDF5FCDEEDFAD4E7F8E2E5E9" id="linearGradientF8FBFEEDF5FCDEEDFAD4E7F8E2E5E9_1003283758" x1="0" y1="445.0" x2="0" y2="551.0" gradientUnits="userSpaceOnUse" xlink:type="simple" xlink:actuate="onLoad" xlink:show="other" /><linearGradient xmlns:xlink="http://www.w3.org/1999/xlink" xlink:href="#linearGradientF8FBFEEDF5FCDEEDFAD4E7F8E2E5E9" id="linearGradientF8FBFEEDF5FCDEEDFAD4E7F8E2E5E9_1780835522" x1="0" y1="88.0" x2="0" y2="194.0" gradientUnits="userSpaceOnUse" xlink:type="simple" xlink:actuate="onLoad" xlink:show="other" /><linearGradient xmlns:xlink="http://www.w3.org/1999/xlink" xlink:href="#linearGradientFAFBFCFFFFCC" id="linearGradientFAFBFCFFFFCC_1136108357" x1="0" y1="95.0" x2="0" y2="155.0" gradientUnits="userSpaceOnUse" xlink:type="simple" xlink:actuate="onLoad" xlink:show="other" /></defs></svg>
